<svg width="602" height="765" viewBox="0 0 602 765" fill="none" xmlns="http://www.w3.org/2000/svg">
<path d="M-2 763C16.395 695.69 64.6072 678.782 110.644 625.838C140.707 591.265 170.137 556.642 200.425 522.421C224.012 495.772 236.536 460.463 252.286 429.646C261.114 412.372 266.075 392.783 269.759 374.113C276.311 340.904 285.745 309.422 285.745 275.518C285.745 238.188 293.271 199.192 295.968 161.793C297.416 141.722 307.965 123.302 309.166 103.434C310.188 86.5127 323.969 71.9193 325.895 55.5502C328.089 36.9036 356.008 -12.58 356.008 6.16959C356.008 15.9648 344.192 26.4659 339.278 34.7671C333.537 44.4675 328.513 54.6705 323.293 64.5285C318.674 73.2501 317.404 82.6487 313.255 91.4633C310.392 97.5461 316.729 116.185 304.147 104.931C290.46 92.6885 283.556 82.7541 278.309 65.8586C275.412 56.5275 267.717 48.082 265.483 39.09C264.067 33.3887 258.64 28.6974 256.375 23.2948C254.801 19.5398 266.475 40.8524 269.015 44.9092C280.266 62.8789 302.474 83.0261 302.474 103.434C302.474 122.023 299.128 141.085 299.128 158.801C299.128 167.691 296.337 175.304 295.782 184.239C295.446 189.654 293.329 204.938 289.834 208.846C287.447 211.515 289.573 217.528 288.347 220.817C285.42 228.671 285.53 218.702 287.418 215.663C292.418 207.613 297.497 199.345 302.474 191.555C328.597 150.664 363.438 114.745 401.363 80.8224C411.371 71.8703 425.331 60.6549 432.219 49.5647C442.478 33.0469 437.825 52.2619 432.963 59.8731C421.257 78.1964 405.402 94.3998 393.556 112.413C389.844 118.057 380.591 126.628 374.596 130.203C364.092 136.467 398.891 124.007 411.215 121.557C420.403 119.731 432.031 121.391 441.513 121.391C458.614 121.391 407.311 121.391 390.21 121.391C375.919 121.391 372.973 124.597 362.514 132.198C351.478 140.218 346.578 153.44 336.676 162.625C329.753 169.046 322.469 174.322 315.857 181.08C296.518 200.849 288.177 231.275 281.655 256.065C276.272 276.528 272.361 295.985 272.361 317.251C272.361 329.187 269.015 340.024 269.015 351.834C269.015 358.022 272.785 378.368 262.324 368.46C237.633 345.076 224.399 314.919 198.752 291.978C178.148 273.549 160.08 249.612 136.853 233.453C129.349 228.232 107.085 215.497 116.592 215.497C125.904 215.497 151.954 236.8 161.947 241.767C167.122 244.338 171.065 249.469 175.331 253.073C178.44 255.699 185.369 264.048 185.369 260.222C185.369 244.87 185.369 229.518 185.369 214.167C185.369 202.417 185.369 167.169 185.369 178.919C185.369 192.441 185.369 205.964 185.369 219.487C185.369 234.433 182.413 268.036 160.089 268.036C134.883 268.036 111.294 265.671 91.6843 250.08C75.9181 237.544 52.6088 221.91 33.1316 214.167C25.9314 211.304 17.6713 206.49 12.127 201.531C6.15168 196.186 37.3785 212.344 42.9833 214.167C50.3705 216.569 76.1841 222.582 80.9032 226.803C86.7681 232.049 59.0414 239.807 54.8797 241.767C48.7436 244.655 40.2779 245.918 34.8045 249.415C31.1898 251.724 42.0505 254.332 46.3292 255.4C62.1561 259.351 79.4586 259.571 95.7737 258.892C115.318 258.079 120.701 246.158 136.853 257.395C154.616 269.753 185.965 269.596 198.008 288.986C211.8 311.19 226.846 331.929 239.646 354.826C242.71 360.308 249.068 372.276 253.959 375.776C256.027 377.256 271.302 328.449 274.034 320.576C279.886 303.709 289.294 287.794 295.782 271.029C302.005 254.95 306.366 240.613 319.947 228.465C340.969 209.662 419.036 169.655 394.299 184.405C386.268 189.195 378.519 193.139 368.648 196.875C354.902 202.077 347.842 219.29 334.446 226.138C325.654 230.631 360.654 233.051 367.904 235.781C369.939 236.547 382.403 238.386 382.403 239.605C382.403 242.514 357.579 241.137 355.264 241.101C336.74 240.821 328.125 228.933 320.876 247.087C314.923 261.996 311.63 278.066 308.98 293.475C306.034 310.601 307.489 329.917 301.73 346.513C292.613 372.792 274.505 396.865 259.721 420.667C254.668 428.803 246.573 439.929 237.415 444.609C233.669 446.524 252.939 444.963 257.491 443.113C283.035 432.727 310.925 432.638 338.535 432.638C368.455 432.638 396.823 443.673 426.271 447.436C445.163 449.85 502.234 441.617 483.151 441.617C466.653 441.617 452.229 450.595 435.007 450.595C420.846 450.595 408.619 445.064 395.415 444.609C388.995 444.389 366.045 443.724 366.045 437.127C366.045 430.987 388.849 418.227 394.485 413.185C396.253 411.604 419.579 391.71 419.579 402.711C419.579 411.699 391.419 420.606 384.262 426.653C373.918 435.391 341.881 432.638 327.382 432.638C316.683 432.638 301.881 441.628 302.474 427.318C302.924 416.44 315.617 404.417 322.549 396.06C326.652 391.114 349.667 370.511 348.573 373.448C343.066 388.224 332.624 403.13 322.735 415.846C311.221 430.65 301.144 426.653 280.912 426.653C268.916 426.653 265.512 434.526 255.632 435.631C240.229 437.353 232.231 438.259 216.225 433.303C192.837 426.062 165.095 429.646 140.199 429.646C120.553 429.646 102.487 432.638 83.3196 432.638C70.9895 432.638 33.9991 432.638 46.3292 432.638C64.9607 432.638 89.7836 436.714 107.67 431.973C119.475 428.845 135.621 431.782 118.265 424.99C109.491 421.557 93.7414 419.182 87.0372 413.185C81.2245 407.986 104.597 413.746 111.016 418.34C118.03 423.359 132.911 422.613 141.872 425.988C141.971 426.025 172.063 429.412 160.089 432.472C148.671 435.39 140.626 439.356 130.348 444.609C113.895 453.019 124.39 454.147 134.437 438.624C138.939 431.668 156.682 420.667 165.293 420.667C182.992 420.667 218.394 426.868 233.884 419.171C244.596 413.848 233.523 402.222 227.378 396.725C221.28 391.271 203.611 383.398 218.827 391.405C266.589 416.535 233.629 461.148 210.277 488.004C195.615 504.866 179.669 520.265 158.602 530.734C145.068 537.46 140.162 543.371 123.47 543.371C115.529 543.371 109.268 537.641 100.978 537.385C91.2164 537.084 81.3778 537.385 71.6091 537.385C65.5258 537.385 53.0886 537.385 67.1479 537.385C83.7831 537.385 100.869 535.948 116.964 540.378C129.293 543.771 141.287 547.078 153.583 549.522C159.886 550.775 157.909 557.248 160.46 561.161C163.451 565.747 170.247 564.32 175.331 564.32C193.675 564.32 214.541 557.378 228.121 545.698C244.789 531.363 260.659 521.782 285.001 519.428C293.393 518.617 320.804 511.596 328.497 517.101C333.513 520.69 332.285 522.421 325.895 522.421C311.396 522.421 296.897 522.421 282.399 522.421C278.541 522.421 287.37 522.095 289.276 524.084C297.011 532.155 305.451 540.189 315.114 546.363C331.567 556.876 338.415 561.327 359.354 561.327C372.352 561.327 387.563 559.294 399.504 564.32C408.62 568.157 409.676 567.313 398.761 567.313C382.267 567.313 366.907 567.889 351.175 562.824C332.534 556.821 316.61 553.022 302.474 540.378C287.069 526.598 293.263 525.352 309.909 534.392C320.086 539.919 333.764 548.75 345.97 549.356C357.549 549.932 362.431 546.556 371.064 540.378C381.706 532.763 390.255 527.595 404.895 525.58C416.652 523.962 429.085 523.207 440.398 520.094C455.757 515.866 459.582 522.048 469.767 527.742C472.537 529.29 475.573 534.392 469.767 534.392C462.624 534.392 459.223 526.53 452.852 525.58C438.862 523.495 424.67 522.421 409.356 522.421C377.703 522.421 352.478 543.371 321.062 543.371C298.843 543.371 288.592 538.8 270.688 529.903C256.079 522.643 231.941 537.072 219.013 542.706C200.875 550.609 162.807 560.26 152.653 577.289C148.28 584.624 144.531 590.955 138.526 597.905C126.023 612.378 117.448 621.061 100.235 631.491C95.3969 634.422 80.3707 639.139 91.8702 639.139C102.829 639.139 112.797 639.848 123.656 641.467C142.85 644.328 170.366 647.415 185.369 660.088C203.949 675.784 174.228 655.461 165.293 652.606C155.301 649.414 137.09 646.019 130.534 637.809C123.587 629.111 152.234 648.715 158.602 657.761C165.515 667.582 159.095 679.716 164.55 690.016C166.556 693.804 173.399 698.652 167.896 691.679C161.401 683.449 156.459 675.848 155.07 665.908C153.414 654.057 148.361 647.991 163.62 644.958C172.437 643.206 192.226 624.59 172.729 624.175C154.276 623.782 137.132 630.161 118.451 630.161C106.471 630.161 89.8197 632.957 79.9737 625.505C73.8412 620.864 52.5661 614.383 49.6751 609.211C45.7319 602.157 66.7149 616.011 71.4232 622.679C76.1319 629.347 80.1369 639.719 77.929 647.618C76.9215 651.223 72.9884 651.223 71.9808 647.618C69.1907 637.636 76.5966 629.409 83.1337 622.18C110.63 591.773 139.813 565.773 164.736 533.727C171.147 525.484 176.609 516.596 182.766 508.122C194.051 492.593 217.99 479.526 232.211 465.392C249.905 447.807 256.831 425.052 269.759 405.038C297.445 362.176 341.473 332.68 389.652 308.439C431.85 287.208 481.118 272.624 529.249 271.029C544.665 270.518 562.541 266.271 577.764 263.547C589.539 261.441 569.637 262.051 566.797 262.051C557.441 262.051 548.085 262.051 538.729 262.051C526.057 262.051 509.261 266.006 509.918 250.745C510.401 239.515 524.314 224.531 535.941 220.817C552.375 215.567 580.412 198.986 598.211 205.355C607.201 208.571 579.836 210.86 570.887 214.167C558.528 218.733 546.425 225.53 535.198 231.957C516.429 242.701 483.167 292.86 523.301 294.971C530.354 295.342 522.225 297.964 519.212 297.964C509.251 297.964 502.17 297.658 493.188 293.641C483.324 289.229 470.649 289.092 461.403 284.497C450.205 278.932 445.551 280.838 446.346 268.036C446.632 263.431 457.551 246.376 461.589 242.764C469.788 235.43 457.488 256.112 456.57 257.395C450.495 265.886 444.329 275.826 436.309 283C425.407 292.752 409.852 290.348 400.248 303.95C394.254 312.437 387.25 308.527 377.57 310.101C362.266 312.59 346.366 325.898 334.26 333.877C314.785 346.712 301.757 353.454 289.834 372.118C281.12 385.759 278.822 400.372 269.015 414.017C251.943 437.771 237.476 463.017 218.827 485.843C209.353 497.44 192.93 505.248 182.209 516.436C166.252 533.087 155.23 554.707 137.039 568.809C124.698 578.376 110.167 590.137 102.465 603.226C89.9709 624.46 68.7108 642.883 61.5715 666.074C55.2523 686.6 44.8421 681.599 44.8421 700.491C44.8421 716.688 41.6057 747.078 44.8421 763M49.6751 767.828C95.527 771.929 240.413 772 283.514 739.23C320.513 711.1 358.359 678.057 387.794 643.628C400.887 628.313 411.533 614.233 427.015 600.898C448.092 582.743 429.355 601.569 422.925 609.876C409.023 627.838 362.7 677.276 362.7 623.178C362.7 612.242 369.061 644.502 369.391 655.433C369.851 670.649 370.394 687.063 351.918 693.674C345.497 695.971 339.988 703.801 335.933 708.638M299.25 727C309.102 720.076 330.193 715.133 340.394 708.638C360.279 695.976 379.864 686.98 401.177 676.715C411.74 671.627 423.511 674.047 432.963 667.404C438.621 663.427 447.914 653.029 449.506 646.621C450.131 644.108 431.01 666.695 425.527 671.394C405.68 688.408 378.693 675.215 356.008 685.361C345.503 690.059 338.276 699.227 329.241 705.645C316.894 714.415 321.965 713.958 334.631 713.958C354.768 713.958 377.809 716.547 397.831 713.792C447.183 707 490.748 644.694 493.188 603.226C493.976 589.835 493.188 576.23 493.188 562.824C493.188 547.989 491.356 582.682 489.842 588.096C488.806 591.806 481.35 614.775 489.842 615.197C521.33 616.762 526.7 591.731 530.736 570.971C535.392 547.028 543.376 520.496 543.376 496.151C543.376 485.216 540.252 517.947 536.685 528.407C531.472 543.69 526.184 556.17 518.282 570.305C503.286 597.133 488.47 623.68 474.972 651.276C469.779 661.894 469.289 671.813 469.767 683.365C470.384 698.269 475.647 698.994 489.842 698.994C508.301 698.994 495.413 696.001 484.638 696.001C467.017 696.001 425.527 704.192 425.527 704.192C286.5 724 436 744.5 321.45 717C291 733.48 245.588 763.375 205.5 763.375" stroke="#DB8080" stroke-width="3" stroke-linecap="round"/>
</svg>
